# xmcd CD database file
#
# Track frame offsets:
#	150
#	14157
#	27647
#	49757
#	65752
#	80962
#	108052
#	125407
#	140430
#	160512
#	173645
#	182922
#
# Disc length: 2705 seconds
#
# Revision: 0
# Processed by: cddbd v1.5.1PL0 Copyright (c) Steve Scherf et al.
# Submitted via: CDex 1.51
#
DISCID=a70a8f0c
DTITLE=Joyce, Pat - By Request
DYEAR=1992
DGENRE=Jazz
TTITLE0=What I Did For Love (Kleban/Hamlisch)
TTITLE1=An Affair To Remember (Warren/McCary)
TTITLE2=Ellington Medley
TTITLE3=Send in the Clowns (Sondheim)
TTITLE4=Solice (Scott Joplin)
TTITLE5=Maple Leaf Rag (Scott Joplin)
TTITLE6=Wolverine Blues (Jelly Roll Morton)
TTITLE7=September Song (Anderson/Weill)
TTITLE8=Gershwin Medley
TTITLE9=Memory (Webber)
TTITLE10=Little Rock Getaway (Sullivan)
TTITLE11=Autumn Leaves (Mercerr/Kosma)
EXTD=YEAR: 1992
EXTT0=
EXTT1=
EXTT2=
EXTT3=
EXTT4=
EXTT5=
EXTT6=
EXTT7=
EXTT8=
EXTT9=
EXTT10=
EXTT11=
PLAYORDER=
